<?xml version="1.0" encoding="UTF-8" standalone="no"?>
<!-- Created with Inkscape (http://www.inkscape.org/) -->
<svg
   xmlns:dc="http://purl.org/dc/elements/1.1/"
   xmlns:cc="http://creativecommons.org/ns#"
   xmlns:rdf="http://www.w3.org/1999/02/22-rdf-syntax-ns#"
   xmlns:svg="http://www.w3.org/2000/svg"
   xmlns="http://www.w3.org/2000/svg"
   xmlns:xlink="http://www.w3.org/1999/xlink"
   xmlns:sodipodi="http://sodipodi.sourceforge.net/DTD/sodipodi-0.dtd"
   xmlns:inkscape="http://www.inkscape.org/namespaces/inkscape"
   width="81"
   height="81"
   id="svg2"
   sodipodi:version="0.32"
   inkscape:version="0.46"
   version="1.0"
   sodipodi:docname="RB1.svg"
   inkscape:output_extension="org.inkscape.output.svg.inkscape"
   style="display:inline"
   inkscape:export-filename="C:\Users\Tim\Desktop\JSHManager\trunk\src\jshm\resources\images\songsources\64\RB1.png"
   inkscape:export-xdpi="71.111115"
   inkscape:export-ydpi="71.111115">
  <defs
     id="defs4">
    <inkscape:perspective
       sodipodi:type="inkscape:persp3d"
       inkscape:vp_x="0 : 526.18109 : 1"
       inkscape:vp_y="0 : 1000 : 0"
       inkscape:vp_z="744.09448 : 526.18109 : 1"
       inkscape:persp3d-origin="372.04724 : 350.78739 : 1"
       id="perspective10" />
    <inkscape:perspective
       id="perspective6560"
       inkscape:persp3d-origin="372.04724 : 350.78739 : 1"
       inkscape:vp_z="744.09448 : 526.18109 : 1"
       inkscape:vp_y="0 : 1000 : 0"
       inkscape:vp_x="0 : 526.18109 : 1"
       sodipodi:type="inkscape:persp3d" />
  </defs>
  <sodipodi:namedview
     id="base"
     pagecolor="#ffffff"
     bordercolor="#666666"
     borderopacity="1.0"
     gridtolerance="10000"
     guidetolerance="10"
     objecttolerance="10"
     inkscape:pageopacity="0"
     inkscape:pageshadow="2"
     inkscape:zoom="8"
     inkscape:cx="25.248366"
     inkscape:cy="45.092355"
     inkscape:document-units="px"
     inkscape:current-layer="layer2"
     showgrid="false"
     inkscape:window-width="1920"
     inkscape:window-height="1118"
     inkscape:window-x="1269"
     inkscape:window-y="35" />
  <metadata
     id="metadata7">
    <rdf:RDF>
      <cc:Work
         rdf:about="">
        <dc:format>image/svg+xml</dc:format>
        <dc:type
           rdf:resource="http://purl.org/dc/dcmitype/StillImage" />
      </cc:Work>
    </rdf:RDF>
  </metadata>
  <g
     inkscape:label="Black circle bg"
     inkscape:groupmode="layer"
     id="layer1">
    <path
       sodipodi:type="arc"
       style="fill:#000000;stroke:#000000"
       id="path2403"
       sodipodi:cx="40.153564"
       sodipodi:cy="40.593899"
       sodipodi:rx="36.996838"
       sodipodi:ry="36.996838"
       d="M 77.150402,40.593899 A 36.996838,36.996838 0 1 1 3.1567268,40.593899 A 36.996838,36.996838 0 1 1 77.150402,40.593899 z"
       transform="matrix(1.0267533,0,0,1.0267533,-0.727803,-1.1799213)" />
  </g>
  <g
     inkscape:groupmode="layer"
     id="layer2"
     inkscape:label="Gray circle bg">
    <path
       sodipodi:type="arc"
       style="fill:#cccccc;fill-opacity:1;stroke:#cccccc;stroke-width:1.00013089;stroke-miterlimit:4;stroke-dasharray:none"
       id="path2408"
       sodipodi:cx="49.244938"
       sodipodi:cy="41.098976"
       sodipodi:rx="27.14785"
       sodipodi:ry="27.14785"
       d="M 76.392788,41.098976 A 27.14785,27.14785 0 1 1 22.097088,41.098976 A 27.14785,27.14785 0 1 1 76.392788,41.098976 z"
       transform="matrix(1.2478366,0,0,1.2478366,-20.949637,-10.784809)" />
  </g>
  <g
     inkscape:groupmode="layer"
     id="layer4"
     inkscape:label="1"
     style="opacity:1;display:inline">
    <path
       sodipodi:type="inkscape:offset"
       inkscape:radius="0"
       inkscape:original="M 46 17.15625 L 41.375 17.1875 L 37.46875 17.1875 L 25.59375 25.46875 L 30.375 33.21875 L 37.5625 28.125 L 37.78125 46.34375 L 38 64.5625 L 42 64.5625 L 46 64.5625 L 46 40.875 L 46 17.15625 z "
       xlink:href="#path6588"
       style="fill:#000000;stroke:none;stroke-width:2;stroke-miterlimit:4;stroke-dasharray:none;stroke-opacity:1"
       id="path6748"
       inkscape:href="#path6588"
       d="M 46,17.15625 L 41.375,17.1875 L 37.46875,17.1875 L 25.59375,25.46875 L 30.375,33.21875 L 37.5625,28.125 L 37.78125,46.34375 L 38,64.5625 L 42,64.5625 L 46,64.5625 L 46,40.875 L 46,17.15625 z" />
    <path
       sodipodi:type="inkscape:offset"
       inkscape:radius="3.0005651"
       inkscape:original="M 45.96875 13 L 41.34375 13.03125 L 37.46875 13.03125 C 36.618932 13.031963 35.789854 13.293777 35.09375 13.78125 L 23.21875 22.0625 C 21.405715 23.321991 20.897394 25.781166 22.0625 27.65625 L 26.84375 35.40625 C 27.448227 36.38153 28.437366 37.056223 29.5625 37.28125 C 30.687634 37.506277 31.848163 37.261517 32.78125 36.59375 L 33.5 36.09375 L 33.625 46.40625 L 33.84375 64.625 C 33.872627 66.898241 35.726582 68.724317 38 68.71875 L 42 68.71875 L 46 68.71875 C 47.103106 68.721365 48.157484 68.280016 48.9375 67.5 C 49.717517 66.719981 50.158865 65.665606 50.15625 64.5625 L 50.15625 40.875 L 50.15625 17.15625 C 50.158929 16.047694 49.7243 14.999678 48.9375 14.21875 C 48.150701 13.437822 47.077255 12.989017 45.96875 13 z "
       xlink:href="#path6754"
       style="fill:#000000;fill-opacity:1;stroke:none;stroke-width:2;stroke-miterlimit:4;stroke-dasharray:none;stroke-opacity:1"
       id="path6756"
       inkscape:href="#path6754"
       d="M 45.9375,10 L 41.3125,10.03125 L 37.46875,10.03125 C 36.004289,10.032479 34.574572,10.472455 33.375,11.3125 L 21.5,19.59375 C 18.399773,21.747436 17.507709,26.043671 19.5,29.25 L 24.28125,36.96875 C 24.281196,36.979167 24.281196,36.989583 24.28125,37 C 25.331453,38.694427 27.044237,39.833847 28.96875,40.21875 C 29.49644,40.324288 30.030849,40.233105 30.5625,40.21875 L 30.625,46.4375 L 30.84375,64.65625 C 30.893087,68.540108 34.115841,71.728261 38,71.71875 L 42,71.71875 L 46,71.71875 C 47.907976,71.723273 49.726651,70.960849 51.0625,69.625 C 52.398344,68.289152 53.160773,66.470474 53.15625,64.5625 L 53.15625,40.875 L 53.15625,17.15625 C 53.160835,15.258848 52.409818,13.431012 51.0625,12.09375 C 49.715183,10.756487 47.874976,9.9808036 45.9375,10 z" />
    <path
       sodipodi:type="inkscape:offset"
       inkscape:radius="4.1460166"
       inkscape:original="M 46 17.15625 L 41.375 17.1875 L 37.46875 17.1875 L 25.59375 25.46875 L 30.375 33.21875 L 37.5625 28.125 L 37.78125 46.34375 L 38 64.5625 L 42 64.5625 L 46 64.5625 L 46 40.875 L 46 17.15625 z "
       xlink:href="#path6588"
       style="fill:#ffffff;stroke:none;stroke-width:2;stroke-miterlimit:4;stroke-dasharray:none;stroke-opacity:1"
       id="path6754"
       inkscape:href="#path6588"
       d="M 45.96875,13 L 41.34375,13.03125 L 37.46875,13.03125 C 36.618932,13.031963 35.789854,13.293777 35.09375,13.78125 L 23.21875,22.0625 C 21.405715,23.321991 20.897394,25.781166 22.0625,27.65625 L 26.84375,35.40625 C 27.448227,36.38153 28.429815,37.062728 29.554949,37.287754 C 30.680083,37.512781 31.848163,37.261517 32.78125,36.59375 L 33.5,36.09375 L 33.625,46.40625 L 33.84375,64.625 C 33.872627,66.898241 35.726582,68.724317 38,68.71875 L 42,68.71875 L 46,68.71875 C 47.103106,68.721365 48.161784,68.284316 48.9418,67.5043 C 49.721816,66.724284 50.158865,65.665606 50.15625,64.5625 L 50.15625,40.875 L 50.15625,17.15625 C 50.158929,16.047694 49.717599,14.984226 48.930799,14.203298 C 48.143999,13.422369 47.077255,12.989017 45.96875,13 z" />
    <path
       style="fill:#000000;stroke:none;stroke-width:2;stroke-miterlimit:4;stroke-dasharray:none;stroke-opacity:1"
       d="M 37.782432,46.346329 L 37.566558,28.135981 L 30.376901,33.232461 L 25.595433,25.46247 L 37.46616,17.186865 L 41.381686,17.177814 L 46,17.168761 L 46,40.862719 L 46,64.556677 L 41.999154,64.556677 L 37.998309,64.556677 L 37.782432,46.346329 z"
       sodipodi:nodetypes="cccccccccccc"
       id="path6588" />
  </g>
  <flowRoot
     xml:space="preserve"
     id="flowRoot3324"
     style="font-size:56px;font-style:normal;font-variant:normal;font-weight:900;font-stretch:normal;text-align:start;line-height:125%;writing-mode:lr-tb;text-anchor:start;fill:#cccccc;fill-opacity:1;stroke:none;stroke-width:1px;stroke-linecap:butt;stroke-linejoin:miter;stroke-opacity:1;font-family:Arial Black;-inkscape-font-specification:Arial Black Heavy"
     transform="translate(-0.625,-9.625)"><flowRegion
       id="flowRegion3326"><rect
         id="rect3328"
         width="34.5"
         height="64.5"
         x="23.5"
         y="24.25"
         style="font-size:56px;font-style:normal;font-variant:normal;font-weight:900;font-stretch:normal;text-align:start;line-height:125%;writing-mode:lr-tb;text-anchor:start;fill:#cccccc;fill-opacity:1;font-family:Arial Black;-inkscape-font-specification:Arial Black Heavy" /></flowRegion><flowPara
       id="flowPara3330"
       style="font-size:56px;font-style:normal;font-variant:normal;font-weight:900;font-stretch:normal;text-align:start;line-height:125%;writing-mode:lr-tb;text-anchor:start;font-family:Arial Black;-inkscape-font-specification:Arial Black Heavy">1</flowPara></flowRoot>  <flowRoot
     xml:space="preserve"
     id="flowRoot3841"
     style="font-size:10px;font-style:normal;font-weight:normal;fill:#000000;fill-opacity:1;stroke:none;stroke-width:1px;stroke-linecap:butt;stroke-linejoin:miter;stroke-opacity:1;font-family:Bitstream Vera Sans"><flowRegion
       id="flowRegion3843"><rect
         id="rect3845"
         width="11.375"
         height="12.75"
         x="37.625"
         y="32.75" /></flowRegion><flowPara
       id="flowPara3847" /></flowRoot>  <flowRoot
     xml:space="preserve"
     id="flowRoot3849"
     style="font-size:10px;font-style:normal;font-weight:normal;fill:#000000;fill-opacity:1;stroke:none;stroke-width:1px;stroke-linecap:butt;stroke-linejoin:miter;stroke-opacity:1;font-family:Bitstream Vera Sans"><flowRegion
       id="flowRegion3851"><rect
         id="rect3853"
         width="0.625"
         height="15.375"
         x="9.375"
         y="56.375" /></flowRegion><flowPara
       id="flowPara3855" /></flowRoot></svg>
